<svg xmlns="http://www.w3.org/2000/svg" viewBox="0 0 2763.2099999999996 609" width="2763.2099999999996" height="609" style="--bg:#ffffff;--fg:#1f2328;--line:#d1d9e0;--accent:#0969da;--muted:#59636e;background:var(--bg)">
<style>
  @import url('https://fonts.googleapis.com/css2?family=Inter:wght@400;500;600;700&amp;display=swap');
  text { font-family: 'Inter', system-ui, sans-serif; }
  svg {
    /* Derived from --bg and --fg (overridable via --line, --accent, etc.) */
    --_text:          var(--fg);
    --_text-sec:      var(--muted, color-mix(in srgb, var(--fg) 60%, var(--bg)));
    --_text-muted:    var(--muted, color-mix(in srgb, var(--fg) 40%, var(--bg)));
    --_text-faint:    color-mix(in srgb, var(--fg) 25%, var(--bg));
    --_line:          var(--line, color-mix(in srgb, var(--fg) 30%, var(--bg)));
    --_arrow:         var(--accent, color-mix(in srgb, var(--fg) 50%, var(--bg)));
    --_node-fill:     var(--surface, color-mix(in srgb, var(--fg) 3%, var(--bg)));
    --_node-stroke:   var(--border, color-mix(in srgb, var(--fg) 20%, var(--bg)));
    --_group-fill:    var(--bg);
    --_group-hdr:     color-mix(in srgb, var(--fg) 5%, var(--bg));
    --_inner-stroke:  color-mix(in srgb, var(--fg) 12%, var(--bg));
    --_key-badge:     color-mix(in srgb, var(--fg) 10%, var(--bg));
  }
</style>
<defs>
  <marker id="arrowhead" markerWidth="8" markerHeight="4.8" refX="8" refY="2.4" orient="auto">
    <polygon points="0 0, 8 2.4, 0 4.8" fill="var(--_arrow)" />
  </marker>
  <marker id="arrowhead-start" markerWidth="8" markerHeight="4.8" refX="0" refY="2.4" orient="auto-start-reverse">
    <polygon points="8 0, 0 2.4, 8 4.8" fill="var(--_arrow)" />
  </marker>
</defs>
<polyline points="436.65000000000003,289.5 456.65000000000003,289.5 456.65000000000003,118 558.875,118" fill="none" stroke="var(--_line)" stroke-width="0.75" marker-end="url(#arrowhead)" />
<polyline points="826.825,118 929.0500000000001,118 929.0500000000001,58 949.0500000000002,58" fill="none" stroke="var(--_line)" stroke-width="0.75" marker-end="url(#arrowhead)" />
<polyline points="826.825,118 1202.8750000000002,118" fill="none" stroke="var(--_line)" stroke-width="0.75" marker-end="url(#arrowhead)" />
<polyline points="1406.4750000000001,118 1680.3000000000002,118 1680.3000000000002,88 1743.2,88" fill="none" stroke="var(--_line)" stroke-width="0.75" marker-end="url(#arrowhead)" />
<polyline points="1406.4750000000001,118 1680.3000000000002,118 1680.3000000000002,148 1700.3000000000002,148" fill="none" stroke="var(--_line)" stroke-width="0.75" marker-end="url(#arrowhead)" />
<polyline points="436.65000000000003,289.5 456.65000000000003,289.5 456.65000000000003,360.25 476.65,360.25" fill="none" stroke="var(--_line)" stroke-width="0.75" marker-end="url(#arrowhead)" />
<polyline points="826.825,118 929.0500000000001,118 929.0500000000001,289.5 1195.7250000000001,289.5" fill="none" stroke="var(--_line)" stroke-width="0.75" marker-end="url(#arrowhead)" />
<polyline points="1413.6250000000002,289.5 1917.1000000000001,289.5" fill="none" stroke="var(--_line)" stroke-width="0.75" marker-end="url(#arrowhead)" />
<polyline points="2108.2215160472974,281.6215160472973 2365.48,281.6215160472973 2365.48,259.5 2494.5849999999996,259.5" fill="none" stroke="var(--_line)" stroke-width="0.75" marker-end="url(#arrowhead)" />
<polyline points="2108.2215160472974,297.3784839527027 2365.48,297.3784839527027 2365.48,319.5 2398.06,319.5" fill="none" stroke="var(--_line)" stroke-width="0.75" marker-end="url(#arrowhead)" />
<polyline points="436.65000000000003,289.5 456.65000000000003,289.5 456.65000000000003,431 508.82500000000005,431" fill="none" stroke="var(--_line)" stroke-width="0.75" marker-end="url(#arrowhead)" />
<polyline points="876.875,431 1106.3500000000001,431" fill="none" stroke="var(--_line)" stroke-width="0.75" marker-end="url(#arrowhead)" />
<polyline points="1503.0000000000002,431 1896.9250000000002,431" fill="none" stroke="var(--_line)" stroke-width="0.75" marker-end="url(#arrowhead)" />
<polyline points="429.5,521 456.65000000000003,521 456.65000000000003,491 494.525,491" fill="none" stroke="var(--_line)" stroke-width="0.75" marker-end="url(#arrowhead)" />
<polyline points="429.5,521 456.65000000000003,521 456.65000000000003,551 490.95000000000005,551" fill="none" stroke="var(--_line)" stroke-width="0.75" marker-end="url(#arrowhead)" />
<rect x="2348.9" y="246" width="33.16" height="27" rx="4" ry="4" fill="var(--bg)" stroke="var(--_inner-stroke)" stroke-width="0.5" />
<text x="2365.48" y="259.5" text-anchor="middle" dy="0.35em" font-size="11" font-weight="400" fill="var(--_text-muted)">Yes</text>
<rect x="2351.76" y="306" width="27.44" height="27" rx="4" ry="4" fill="var(--bg)" stroke="var(--_inner-stroke)" stroke-width="0.5" />
<text x="2365.48" y="319.5" text-anchor="middle" dy="0.35em" font-size="11" font-weight="400" fill="var(--_text-muted)">No</text>
<rect x="40" y="271.5" width="396.65000000000003" height="36" rx="0" ry="0" fill="var(--_node-fill)" stroke="var(--_node-stroke)" stroke-width="0.75" />
<rect x="558.875" y="100" width="267.95000000000005" height="36" rx="0" ry="0" fill="var(--_node-fill)" stroke="var(--_node-stroke)" stroke-width="0.75" />
<rect x="949.0500000000002" y="40" width="711.25" height="36" rx="0" ry="0" fill="var(--_node-fill)" stroke="var(--_node-stroke)" stroke-width="0.75" />
<rect x="1202.8750000000002" y="100" width="203.60000000000002" height="36" rx="0" ry="0" fill="var(--_node-fill)" stroke="var(--_node-stroke)" stroke-width="0.75" />
<rect x="1743.2" y="70" width="546.8000000000001" height="36" rx="0" ry="0" fill="var(--_node-fill)" stroke="var(--_node-stroke)" stroke-width="0.75" />
<rect x="1700.3000000000002" y="130" width="632.6" height="36" rx="0" ry="0" fill="var(--_node-fill)" stroke="var(--_node-stroke)" stroke-width="0.75" />
<rect x="476.65" y="342.25" width="432.40000000000003" height="36" rx="0" ry="0" fill="var(--_node-fill)" stroke="var(--_node-stroke)" stroke-width="0.75" />
<rect x="1195.7250000000001" y="271.5" width="217.9" height="36" rx="0" ry="0" fill="var(--_node-fill)" stroke="var(--_node-stroke)" stroke-width="0.75" />
<polygon points="2016.6000000000001,190 2116.1000000000004,289.5 2016.6000000000001,389 1917.1000000000001,289.5" fill="var(--_node-fill)" stroke="var(--_node-stroke)" stroke-width="0.75" />
<rect x="2494.5849999999996" y="241.5" width="132.10000000000002" height="36" rx="0" ry="0" fill="var(--_node-fill)" stroke="var(--_node-stroke)" stroke-width="0.75" />
<rect x="2398.06" y="301.5" width="325.15000000000003" height="36" rx="0" ry="0" fill="var(--_node-fill)" stroke="var(--_node-stroke)" stroke-width="0.75" />
<rect x="508.82500000000005" y="413" width="368.05" height="36" rx="0" ry="0" fill="var(--_node-fill)" stroke="var(--_node-stroke)" stroke-width="0.75" />
<rect x="1106.3500000000001" y="413" width="396.65000000000003" height="36" rx="0" ry="0" fill="var(--_node-fill)" stroke="var(--_node-stroke)" stroke-width="0.75" />
<rect x="1896.9250000000002" y="413" width="239.35000000000002" height="36" rx="0" ry="0" fill="var(--_node-fill)" stroke="var(--_node-stroke)" stroke-width="0.75" />
<rect x="47.150000000000006" y="503" width="382.35" height="36" rx="0" ry="0" fill="var(--_node-fill)" stroke="var(--_node-stroke)" stroke-width="0.75" />
<rect x="494.525" y="473" width="396.65000000000003" height="36" rx="0" ry="0" fill="var(--_node-fill)" stroke="var(--_node-stroke)" stroke-width="0.75" />
<rect x="490.95000000000005" y="533" width="403.8" height="36" rx="0" ry="0" fill="var(--_node-fill)" stroke="var(--_node-stroke)" stroke-width="0.75" />
<text x="238.32500000000002" y="289.5" text-anchor="middle" dy="0.35em" font-size="13" font-weight="500" fill="var(--_text)">&quot;skills/registry.json&lt;br/&gt;(single source of truth)&quot;</text>
<text x="692.85" y="118" text-anchor="middle" dy="0.35em" font-size="13" font-weight="500" fill="var(--_text)">&quot;sync-skills-registry.sh --apply&quot;</text>
<text x="1304.6750000000002" y="58" text-anchor="middle" dy="0.35em" font-size="13" font-weight="500" fill="var(--_text)">&quot;Generate artifacts&lt;br/&gt;skills/registry.md&lt;br/&gt;skills/registry.base&lt;br/&gt;skills/registry-items/&quot;</text>
<text x="1304.6750000000002" y="118" text-anchor="middle" dy="0.35em" font-size="13" font-weight="500" fill="var(--_text)">&quot;Create/update symlinks&quot;</text>
<text x="2016.6000000000001" y="88" text-anchor="middle" dy="0.35em" font-size="13" font-weight="500" fill="var(--_text)">&quot;Global runtime links&lt;br/&gt;~/.agents/skills/&lt;skill&gt; -&gt; skills-source/...&quot;</text>
<text x="2016.6000000000001" y="148" text-anchor="middle" dy="0.35em" font-size="13" font-weight="500" fill="var(--_text)">&quot;Repo runtime links&lt;br/&gt;~/GitHub/&lt;repo&gt;/.agents/skills/&lt;skill&gt; -&gt; skills-source/...&quot;</text>
<text x="692.85" y="360.25" text-anchor="middle" dy="0.35em" font-size="13" font-weight="500" fill="var(--_text)">&quot;unmanaged_repo_local_skills&lt;br/&gt;(repo-local only list)&quot;</text>
<text x="1304.6750000000002" y="289.5" text-anchor="middle" dy="0.35em" font-size="13" font-weight="500" fill="var(--_text)">&quot;check-skills-registry.sh&quot;</text>
<text x="2016.6000000000001" y="289.5" text-anchor="middle" dy="0.35em" font-size="13" font-weight="500" fill="var(--_text)">&quot;Artifacts in sync?&quot;</text>
<text x="2560.6349999999998" y="259.5" text-anchor="middle" dy="0.35em" font-size="13" font-weight="500" fill="var(--_text)">&quot;Ready to use&quot;</text>
<text x="2560.6349999999998" y="319.5" text-anchor="middle" dy="0.35em" font-size="13" font-weight="500" fill="var(--_text)">&quot;Re-run sync and include generated files&quot;</text>
<text x="692.85" y="431" text-anchor="middle" dy="0.35em" font-size="13" font-weight="500" fill="var(--_text)">&quot;refresh-external-skills.sh --apply (optional)&quot;</text>
<text x="1304.6750000000002" y="431" text-anchor="middle" dy="0.35em" font-size="13" font-weight="500" fill="var(--_text)">&quot;Pull external skill updates&lt;br/&gt;from upstream_ref&quot;</text>
<text x="2016.6000000000001" y="431" text-anchor="middle" dy="0.35em" font-size="13" font-weight="500" fill="var(--_text)">&quot;Preserve agents/openai.yaml&quot;</text>
<text x="238.32500000000002" y="521" text-anchor="middle" dy="0.35em" font-size="13" font-weight="500" fill="var(--_text)">&quot;launchd: ~/GitHub/scripts/sync/git-auto-sync.sh&quot;</text>
<text x="692.85" y="491" text-anchor="middle" dy="0.35em" font-size="13" font-weight="500" fill="var(--_text)">&quot;Every 15 min:&lt;br/&gt;sync-skills-registry.sh --apply&quot;</text>
<text x="692.85" y="551" text-anchor="middle" dy="0.35em" font-size="13" font-weight="500" fill="var(--_text)">&quot;Daily gate:&lt;br/&gt;refresh-external-skills.sh --apply&quot;</text>
</svg>